<?xml version="1.0" encoding="UTF-8" standalone="no"?>
<svg
   width="192"
   height="192"
   version="1"
   id="svg5"
   sodipodi:docname="apps_oneplus_store.svg"
   xml:space="preserve"
   inkscape:version="1.4.2 (ebf0e940d0, 2025-05-08)"
   xmlns:inkscape="http://www.inkscape.org/namespaces/inkscape"
   xmlns:sodipodi="http://sodipodi.sourceforge.net/DTD/sodipodi-0.dtd"
   xmlns="http://www.w3.org/2000/svg"
   xmlns:svg="http://www.w3.org/2000/svg"><sodipodi:namedview
     id="namedview5"
     pagecolor="#ffffff"
     bordercolor="#000000"
     borderopacity="0.25"
     inkscape:showpageshadow="2"
     inkscape:pageopacity="0.0"
     inkscape:pagecheckerboard="0"
     inkscape:deskcolor="#d1d1d1"
     inkscape:zoom="4.125"
     inkscape:cx="92.606061"
     inkscape:cy="114.42424"
     inkscape:window-width="1920"
     inkscape:window-height="1005"
     inkscape:window-x="0"
     inkscape:window-y="0"
     inkscape:window-maximized="1"
     inkscape:current-layer="svg5" /><defs
     id="defs1"><filter
       id="filter1756"
       style="color-interpolation-filters:sRGB"
       width="1.0936"
       height="1.0985263"
       x="-0.046799998"
       y="-0.049263156"><feGaussianBlur
         id="feGaussianBlur1758"
         stdDeviation="3.12" /></filter><filter
       id="filter7138"
       style="color-interpolation-filters:sRGB"
       width="1.1499844"
       height="1.1499844"
       x="-0.074992205"
       y="-0.074992205"><feGaussianBlur
         id="feGaussianBlur7140"
         stdDeviation="2.406" /></filter><filter
       inkscape:label="Evanescent"
       inkscape:menu="Blurs"
       inkscape:menu-tooltip="Blur the contents of objects, preserving the outline and adding progressive transparency at edges"
       style="color-interpolation-filters:sRGB;"
       id="filter6"
       x="-0.65004319"
       y="-0.61123043"
       width="2.3000864"
       height="2.2224592"><feMorphology
         radius="4"
         in="SourceGraphic"
         result="result0"
         id="feMorphology6" /><feGaussianBlur
         in="result0"
         stdDeviation="8"
         result="result91"
         id="feGaussianBlur6" /><feComposite
         operator="in"
         in="SourceGraphic"
         in2="result91"
         id="feComposite6"
         result="fbSourceGraphic" /><feColorMatrix
         result="fbSourceGraphicAlpha"
         in="fbSourceGraphic"
         values="0 0 0 -1 0 0 0 0 -1 0 0 0 0 -1 0 0 0 0 1 0"
         id="feColorMatrix10" /><feGaussianBlur
         id="feGaussianBlur10"
         result="result6"
         stdDeviation="3"
         in="fbSourceGraphic" /><feColorMatrix
         id="feColorMatrix11"
         values="1 0 0 0 0 0 1 0 0 0 0 0 1 0 0 0 0 0 1 0 "
         result="result7"
         in="fbSourceGraphic" /><feComposite
         id="feComposite11"
         operator="in"
         in="result6"
         in2="result7" /></filter><filter
       style="color-interpolation-filters:sRGB;"
       inkscape:label="Feather"
       id="filter33"
       x="-0.27028296"
       y="-0.25414471"
       width="1.5405659"
       height="1.5082877"><feGaussianBlur
         stdDeviation="3.5"
         result="blur"
         id="feGaussianBlur31" /><feComposite
         in="SourceGraphic"
         in2="blur"
         operator="atop"
         result="composite1"
         id="feComposite31" /><feComposite
         in2="composite1"
         operator="in"
         result="composite2"
         id="feComposite32" /><feComposite
         in2="composite2"
         operator="in"
         result="composite3"
         id="feComposite33" /></filter></defs><path
     style="opacity:0.2;filter:url(#filter1756);fill:#e4e3e3;fill-opacity:1"
     d="m 72,23 -8,8 V 47 H 16 v 120 c 0,4.432 3.568,8 8,8 h 144 c 4.432,0 8,-3.568 8,-8 V 47 H 128 V 31 l -8,-8 z m 0,8 h 48 V 47 H 72 Z"
     id="path1" /><path
     style="fill:#8ab7db;fill-opacity:1"
     d="m 72,19 -8,8 V 43 H 16 v 120 c 0,4.432 3.568,8 8,8 h 144 c 4.432,0 8,-3.568 8,-8 V 43 H 128 V 27 l -8,-8 z m 0,8 h 48 V 43 H 72 Z"
     id="path2" /><path
     style="opacity:0.2;fill:#ffffff"
     d="m 72,19 -8,8 v 1 l 8,-8 h 48 l 8,8 v -1 l -8,-8 z M 16,43 v 1 h 48 v -1 z m 56,0 v 1 h 48 v -1 z m 56,0 v 1 h 48 v -1 z"
     id="path3" /><g
     style="opacity:0.303675;fill:#000000;stroke:#000000;stroke-width:12;stroke-linecap:round;stroke-linejoin:round;stroke-dasharray:none;stroke-opacity:1;filter:url(#filter33)"
     id="g12"
     transform="matrix(2.748905,0,0,2.748905,29.23747,41.115432)">

<path
   d="M 70.71,-45.315 0,-15.432 V 75.2 L 70.71,45.316 Z"
   style="fill:#000000;fill-opacity:1;stroke:#000000;stroke-width:12;stroke-linecap:round;stroke-linejoin:round;stroke-dasharray:none;stroke-opacity:1"
   transform="matrix(0.26068,0,0,0.26068,25.4,25.4)"
   id="path11" />

<path
   d="M 70.71,-45.315 0,-75.2 -70.71,-45.316 0,-15.432 Z M 0,-15.432 -70.71,-45.315 v 90.63 L 0,75.2 Z"
   style="fill:#000000;fill-opacity:1;stroke:#000000;stroke-width:12;stroke-linecap:round;stroke-linejoin:round;stroke-dasharray:none;stroke-opacity:1"
   transform="matrix(0.26068,0,0,0.26068,25.4,25.4)"
   id="path12" />

</g><g
     style="fill:#ffffff;stroke:#363d42;stroke-width:12;stroke-linecap:round;stroke-linejoin:round;stroke-dasharray:none;stroke-opacity:1"
     id="g6"
     transform="matrix(2.4169233,0,0,2.4169233,34.610148,44.33298)">

<path
   d="M 70.71,-45.315 0,-15.432 V 75.2 L 70.71,45.316 Z"
   style="fill:#ffffff;fill-opacity:1;stroke:#363d42;stroke-width:12;stroke-linecap:round;stroke-linejoin:round;stroke-dasharray:none;stroke-opacity:1"
   transform="matrix(0.26068,0,0,0.26068,25.4,25.4)"
   id="path5" />

<path
   d="M 70.71,-45.315 0,-75.2 -70.71,-45.316 0,-15.432 Z M 0,-15.432 -70.71,-45.315 v 90.63 L 0,75.2 Z"
   style="fill:#ffffff;fill-opacity:1;stroke:#363d42;stroke-width:12;stroke-linecap:round;stroke-linejoin:round;stroke-dasharray:none;stroke-opacity:1"
   transform="matrix(0.26068,0,0,0.26068,25.4,25.4)"
   id="path6" />

</g></svg>
